<svg width="25" height="25" viewBox="0 0 25 25" fill="none" xmlns="http://www.w3.org/2000/svg">
<path fill-rule="evenodd" clip-rule="evenodd" d="M12.5 25C19.4036 25 25 19.4036 25 12.5C25 5.59644 19.4036 0 12.5 0C5.59644 0 0 5.59644 0 12.5C0 19.4036 5.59644 25 12.5 25ZM11.3152 11.393C11.657 11.7348 12.1207 11.9269 12.6042 11.9269C12.8436 11.9269 13.0806 11.8797 13.3018 11.7881C13.5229 11.6965 13.7239 11.5622 13.8932 11.393C14.0624 11.2237 14.1967 11.0227 14.2883 10.8016C14.3799 10.5804 14.4271 10.3434 14.4271 10.104C14.4271 9.62049 14.235 9.15683 13.8932 8.81497C13.5513 8.4731 13.0876 8.28105 12.6042 8.28105C12.1207 8.28105 11.657 8.4731 11.3152 8.81497C10.9733 9.15683 10.7813 9.62049 10.7813 10.104C10.7813 10.5874 10.9733 11.0511 11.3152 11.393ZM8.99498 6.49477C9.9522 5.53756 11.2505 4.9998 12.6042 4.9998C13.9579 4.9998 15.2561 5.53756 16.2134 6.49477C17.1706 7.45199 17.7083 8.75025 17.7083 10.104C17.7083 13.9321 12.6042 19.5831 12.6042 19.5831C12.6042 19.5831 7.50001 13.9321 7.50001 10.104C7.50001 8.75025 8.03777 7.45199 8.99498 6.49477Z" fill="#DC8649"/>
</svg>
