<svg width="16" height="16" viewBox="0 0 16 16" fill="none" xmlns="http://www.w3.org/2000/svg">
<g clip-path="url(#clip0_70_243)">
<path d="M13.3051 1.90097H11.2774V0.918701C11.2774 0.728951 11.1234 0.574951 10.9336 0.574951C10.7439 0.574951 10.5899 0.728951 10.5899 0.918701V1.90097H4.95063V0.918701C4.95063 0.728951 4.79663 0.574951 4.60688 0.574951C4.41713 0.574951 4.26313 0.728951 4.26313 0.918701V1.90097H2.23535C1.28763 1.90097 0.516602 2.672 0.516602 3.61972V13.7062C0.516602 14.6539 1.28763 15.4249 2.23535 15.4249H13.3051C14.2529 15.4249 15.0239 14.6539 15.0239 13.7062V3.61972C15.0239 2.672 14.2529 1.90097 13.3051 1.90097ZM2.23535 2.58847H4.26313V3.50989C4.26313 3.69964 4.41713 3.85364 4.60688 3.85364C4.79663 3.85364 4.95063 3.69964 4.95063 3.50989V2.58847H10.59V3.50989C10.59 3.69964 10.744 3.85364 10.9338 3.85364C11.1235 3.85364 11.2775 3.69964 11.2775 3.50989V2.58847H13.3053C13.874 2.58847 14.3366 3.05098 14.3366 3.61972V5.29533H1.2041V3.61972C1.2041 3.05098 1.66662 2.58847 2.23535 2.58847ZM13.3051 14.7374H2.23535C1.66662 14.7374 1.2041 14.2749 1.2041 13.7062V5.98283H14.3364V13.7062C14.3364 14.2749 13.8739 14.7374 13.3051 14.7374Z" fill="#333333" stroke="#333333" stroke-width="0.5"/>
</g>
<defs>
<clipPath id="clip0_70_243">
<rect width="16" height="16" fill="white"/>
</clipPath>
</defs>
</svg>
