<svg width="41" height="26" viewBox="0 0 41 26" fill="none" xmlns="http://www.w3.org/2000/svg">
<path d="M3.46904 4.29902C6.15295 1.92246 10.2142 0.717773 15.538 0.717773H17.451V5.12246L15.913 5.37402C13.2922 5.80215 11.4691 6.64434 10.4935 7.88027C9.98444 8.5461 9.69573 9.30847 9.65562 10.0928H15.538C16.0454 10.0928 16.532 10.2574 16.8907 10.5504C17.2495 10.8434 17.451 11.2409 17.451 11.6553V22.5928C17.451 24.3162 15.7351 25.7178 13.625 25.7178H2.14718C1.63982 25.7178 1.15325 25.5532 0.794495 25.2601C0.435742 24.9671 0.234196 24.5697 0.234196 24.1553V16.3428L0.239935 11.7818C0.222719 11.6084 -0.140747 7.49902 3.46904 4.29902ZM34.6678 25.7178H23.1899C22.6826 25.7178 22.196 25.5532 21.8373 25.2601C21.4785 24.9671 21.277 24.5697 21.277 24.1553V16.3428L21.2827 11.7818C21.2655 11.6084 20.902 7.49902 24.5118 4.29902C27.1957 1.92246 31.257 0.717773 36.5808 0.717773H38.4938V5.12246L36.9557 5.37402C34.335 5.80215 32.5119 6.64434 31.5363 7.88027C31.0272 8.5461 30.7385 9.30847 30.6984 10.0928H36.5808C37.0881 10.0928 37.5747 10.2574 37.9335 10.5504C38.2922 10.8434 38.4938 11.2409 38.4938 11.6553V22.5928C38.4938 24.3162 36.7778 25.7178 34.6678 25.7178Z" fill="white"/>
</svg>
