<svg width="81" height="81" viewBox="0 0 81 81" fill="none" xmlns="http://www.w3.org/2000/svg">
<g clip-path="url(#clip0_118_104)">
<path fill-rule="evenodd" clip-rule="evenodd" d="M68.1568 10.9714C70.819 10.9714 72.9767 8.81555 72.9767 6.16043C72.9767 3.50056 70.819 1.34473 68.1568 1.34473C65.4945 1.34473 63.3368 3.50056 63.3368 6.16043C63.3368 8.81555 65.4945 10.9714 68.1568 10.9714Z" fill="#F0B26A"/>
<path fill-rule="evenodd" clip-rule="evenodd" d="M23.7308 44.0043L18.1261 35.409C-0.994917 20.4394 -8.7339 48.2461 13.6938 45.5864L23.7308 44.0043Z" fill="#F0B26A"/>
<path fill-rule="evenodd" clip-rule="evenodd" d="M31.9556 35.4136C46.0091 17.7563 18.2711 9.71147 20.9613 33.8317L25.6365 41.8811L31.9556 35.4136Z" fill="#F0B26A"/>
<path fill-rule="evenodd" clip-rule="evenodd" d="M34.3655 79.6553L37.8263 63.9857L34.3655 49.1468H27.2943L18.6398 48.4002L16.907 54.933V76.5849C16.907 78.2742 18.2895 79.6553 19.9802 79.6553H34.3655Z" fill="#B1CE72"/>
<path fill-rule="evenodd" clip-rule="evenodd" d="M63.3227 76.5849V56.6035V50.8639C63.3227 49.9213 62.5473 49.1468 61.604 49.1468H45.8643L41.7496 64.4058L45.8643 79.6554H60.2494C61.9402 79.6553 63.3227 78.274 63.3227 76.5849Z" fill="#B1CE72"/>
<path fill-rule="evenodd" clip-rule="evenodd" d="M31.9555 35.4136C41.6001 23.2951 31.5586 15.7029 25.1833 19.9308C30.4376 20.2247 34.9867 26.515 28.4714 35.5584L29.2375 36.9256L31.9555 35.4136Z" fill="#DC8649"/>
<path fill-rule="evenodd" clip-rule="evenodd" d="M18.1263 35.409C7.21596 26.8697 0.0140801 32.2499 0 37.9569C2.2699 34.6718 7.56622 33.1086 14.7448 37.747C15.0344 37.2989 15.4314 36.9116 15.9312 36.6364L18.1263 35.409Z" fill="#DC8649"/>
<path fill-rule="evenodd" clip-rule="evenodd" d="M34.3655 49.1468H45.8643V79.6553H34.3655V49.1468Z" fill="#FECE85"/>
<path fill-rule="evenodd" clip-rule="evenodd" d="M63.3227 56.6035V50.8639C63.3227 49.9213 62.5473 49.1468 61.604 49.1468H54.6683C55.6119 49.1468 56.387 49.9213 56.387 50.8639V56.6035V76.5847C56.387 78.274 54.9999 79.6551 53.3092 79.6551H60.2496C61.9403 79.6551 63.3228 78.2739 63.3228 76.5847V56.6035H63.3227Z" fill="#79AE62"/>
<path d="M14.217 40.5092C14.0803 40.5092 13.9414 40.4858 13.8055 40.4364C12.0735 39.8068 10.7088 39.434 8.05637 39.1439C7.3954 39.0716 6.9181 38.4772 6.9904 37.8164C7.06269 37.1557 7.6569 36.6791 8.31851 36.7511C10.8801 37.0314 12.4725 37.3905 14.6286 38.1743C15.2535 38.4014 15.5759 39.092 15.3487 39.7167C15.1709 40.2056 14.709 40.5092 14.217 40.5092Z" fill="#C66826"/>
<path d="M26.3337 33.9156C26.3018 33.9156 26.2697 33.9143 26.2372 33.9118C25.5742 33.8593 25.0794 33.2796 25.1319 32.6169C25.2872 30.6579 26.2061 27.9129 27.3168 26.0898C27.6627 25.5221 28.4035 25.3418 28.9715 25.6878C29.5396 26.0334 29.7196 26.774 29.3738 27.3416C28.4663 28.8313 27.6576 31.232 27.5328 32.8071C27.4829 33.4372 26.9555 33.9156 26.3337 33.9156Z" fill="#C66826"/>
<path d="M54.4625 43.4487C54.1707 43.4487 53.878 43.3432 53.6464 43.1298C53.1575 42.6791 53.1268 41.9176 53.5777 41.4291C58.7331 35.8434 57.2048 21.1277 57.1889 20.9796C57.1174 20.3188 57.5951 19.7251 58.2564 19.6534C58.918 19.5825 59.5116 20.0597 59.5833 20.7203C59.6535 21.369 61.2373 36.6803 55.348 43.0611C55.1105 43.3184 54.787 43.4487 54.4625 43.4487Z" fill="#E0D2CE"/>
<path d="M66.6678 26.677C66.5789 26.677 66.4887 26.667 66.3983 26.6465C65.751 26.4982 65.3457 25.8553 65.4926 25.2081C65.5192 25.0912 66.1664 22.3087 68.2034 19.1911C70.9163 15.0394 74.8282 12.2538 79.5161 11.1354C80.1631 10.9812 80.8125 11.38 80.967 12.0266C81.1214 12.6732 80.7221 13.3224 80.0753 13.4767C75.9679 14.4566 72.6679 16.798 70.267 20.4357C68.4425 23.2003 67.8465 25.7181 67.8407 25.7431C67.7119 26.2995 67.2159 26.677 66.6678 26.677Z" fill="#E0D2CE"/>
<path fill-rule="evenodd" clip-rule="evenodd" d="M53.5566 11.83L55.9198 8.98358C56.4055 8.43287 56.3729 8.26961 55.6583 8.09226L51.9874 7.18228C51.5718 7.0796 51.5484 6.96759 51.3429 6.63157L49.4887 3.53775C49.1151 2.90779 48.8863 2.90779 48.5079 3.53775L46.6537 6.63157C46.453 6.96759 46.4248 7.0796 46.0092 7.18228L42.3383 8.09226C41.6284 8.26961 41.5909 8.43287 42.0768 8.98358L44.4447 11.83C44.6969 12.1332 44.7342 12.4879 44.7017 12.9173L44.4167 16.4357C44.3373 17.1636 44.4914 17.2524 45.1734 16.9771L48.4008 15.6332C48.7371 15.4932 49.2649 15.4932 49.5965 15.6332L52.8284 16.9771C53.5103 17.2524 53.6598 17.1638 53.5803 16.4357L53.3002 12.9173C53.2671 12.4879 53.2997 12.1332 53.5566 11.83Z" fill="#FECE85"/>
<path fill-rule="evenodd" clip-rule="evenodd" d="M49.1338 8.8948C48.6527 11.9745 47.63 14.6577 46.3923 16.4683L48.4007 15.633C48.7371 15.493 49.2648 15.493 49.5964 15.633L52.8284 16.9769C53.5102 17.2522 53.6597 17.1636 53.5803 16.4356L53.3001 12.9171C53.2674 12.4878 53.3001 12.1332 53.557 11.8298L55.9203 8.9834C56.406 8.43269 56.3734 8.26943 55.6588 8.09208L51.9878 7.1821C51.5722 7.07942 51.5488 6.96741 51.3433 6.63139L49.4892 3.53757C49.4284 3.4349 49.3724 3.35089 49.321 3.28555C49.498 4.96108 49.4514 6.88373 49.1338 8.8948Z" fill="#FDB440"/>
<path fill-rule="evenodd" clip-rule="evenodd" d="M77.1053 39.4967L79.4685 36.6503C79.959 36.0997 79.9216 35.9363 79.207 35.759L75.5361 34.849C75.1251 34.7463 75.0971 34.6343 74.8961 34.2984L73.042 31.2046C72.6637 30.5747 72.4348 30.5747 72.0611 31.2046L70.2023 34.2984C70.0015 34.6345 69.9733 34.7465 69.5623 34.849L65.8914 35.759C65.1768 35.9363 65.1394 36.0996 65.6299 36.6503L67.9931 39.4967C68.25 39.8 68.2826 40.1546 68.25 40.584L67.9651 44.0977C67.8904 44.8303 68.0398 44.9189 68.7218 44.6437L71.9491 43.2997C72.2855 43.1597 72.8132 43.1597 73.1494 43.2997L76.3768 44.6437C77.0586 44.9189 77.2081 44.8303 77.1335 44.0977L76.8485 40.584C76.8158 40.1546 76.8484 39.8001 77.1053 39.4967Z" fill="#FECE85"/>
<path fill-rule="evenodd" clip-rule="evenodd" d="M72.687 36.5615C72.2014 39.6413 71.1832 42.3244 69.9408 44.135L71.9492 43.2997C72.2855 43.1597 72.8133 43.1597 73.1495 43.2997L76.3768 44.6436C77.0587 44.9189 77.2082 44.8303 77.1335 44.0977L76.8486 40.584C76.8158 40.1546 76.8486 39.8001 77.1055 39.4967L79.4687 36.6503C79.9592 36.0997 79.9218 35.9363 79.2072 35.759L75.5363 34.849C75.1253 34.7463 75.0973 34.6343 74.8964 34.2984L73.0422 31.2046C72.9815 31.1019 72.9255 31.0179 72.8695 30.948C73.0514 32.6278 73 34.5504 72.687 36.5615Z" fill="#FDB440"/>
<path fill-rule="evenodd" clip-rule="evenodd" d="M72.9766 6.16043C72.9766 3.50056 70.8189 1.34473 68.1566 1.34473C67.2786 1.34473 66.4566 1.57808 65.7467 1.98861C67.1898 2.81918 68.1566 4.3778 68.1566 6.16027C68.1566 7.93816 67.1898 9.49678 65.7467 10.3273C66.4566 10.738 67.2786 10.9712 68.1566 10.9712C70.8189 10.9714 72.9766 8.81555 72.9766 6.16043Z" fill="#DC8649"/>
<path fill-rule="evenodd" clip-rule="evenodd" d="M16.2674 44.1491L24.1324 42.6558L29.2373 36.9256L27.598 33.9904C27.2898 33.4351 26.8461 33.0058 26.3322 32.7118C25.342 32.1472 24.081 32.0959 23.0161 32.6886L20.9611 33.8319L18.1261 35.4092L15.931 36.6364C14.9128 37.201 14.3056 38.223 14.2169 39.3056C14.1609 39.9449 14.2916 40.6074 14.6279 41.2094L16.2674 44.1491Z" fill="#FECE85"/>
<path fill-rule="evenodd" clip-rule="evenodd" d="M33.9779 45.423L47.7371 37.7609C48.8721 37.1263 49.2831 35.6843 48.6525 34.5505L46.2098 30.1735C45.5746 29.0396 44.1315 28.6289 42.9965 29.2635L31.9555 35.4138L29.2373 36.9257V42.656L33.9779 45.423Z" fill="#B1CE72"/>
<path fill-rule="evenodd" clip-rule="evenodd" d="M7.24856 60.3134L21.0078 52.6465L21.4002 46.9162L16.2672 44.1491L13.6938 45.5864L2.50326 51.8159C1.37306 52.4459 0.962047 53.8878 1.59249 55.0218L4.03514 59.4035C4.6659 60.5326 6.11377 60.9432 7.24856 60.3134Z" fill="#B1CE72"/>
<path fill-rule="evenodd" clip-rule="evenodd" d="M28.4714 35.5584L27.598 33.9904C27.2898 33.4351 26.846 33.0058 26.3322 32.7118C25.342 32.1472 24.0809 32.0959 23.0161 32.6886L20.961 33.8319L19.0088 34.9192C20.0737 34.3266 21.3301 34.3779 22.3249 34.9425C22.8386 35.2364 23.2823 35.6704 23.5907 36.2211L25.23 39.1608L29.2373 36.9257L28.4714 35.5584Z" fill="#FDB440"/>
<path fill-rule="evenodd" clip-rule="evenodd" d="M47.7371 37.7609C48.8721 37.1263 49.2831 35.6843 48.6525 34.5505L46.2098 30.1735C45.5747 29.0396 44.1315 28.6289 42.9966 29.2635L37.4761 32.3386C38.611 31.7041 40.0542 32.1146 40.6847 33.2486L43.1274 37.6256C43.758 38.7596 43.3516 40.1967 42.226 40.8314L47.7371 37.7609Z" fill="#79AE62"/>
<path fill-rule="evenodd" clip-rule="evenodd" d="M33.9779 45.423L29.2373 36.9256L16.2673 44.1491L21.0079 52.6465C25.3374 50.2339 29.6483 47.8356 33.9779 45.423Z" fill="#DC8649"/>
</g>
<defs>
<clipPath id="clip0_118_104">
<rect width="81" height="81" fill="white"/>
</clipPath>
</defs>
</svg>
