<svg width="1920" height="51" viewBox="0 0 1920 51" fill="none" xmlns="http://www.w3.org/2000/svg">
<path d="M0 0C2.31655 0.0965228 4.6331 0.321743 6.94964 0.321743C346.227 0.321743 685.473 0.321743 1024.75 0.321743C1026.75 0.321743 1028.74 0.321743 1030.74 0.321743C1023.91 5.11571 1013.04 1.22262 1008.21 11.1966C1006.99 10.8749 1005.29 10.7784 1003.97 10.0384C1000.27 7.94705 997.049 9.36271 993.831 11.0036C992.834 11.5184 991.965 12.8697 991 12.8697C979.932 12.8697 969.926 18.1463 959.051 18.8541C953.292 19.2402 948.466 21.6533 943.382 24.1629C929.997 30.7908 915.937 32.0456 901.427 27.8307C899.754 27.3481 897.791 26.769 896.182 27.1551C890.327 28.5064 885.147 27.5734 879.484 25.3212C869.059 21.1707 858.345 17.3741 847.406 14.9289C841.164 13.5132 834.279 15.0254 827.683 15.2506C825.367 15.315 823.05 15.6045 820.734 15.6045C815.2 15.6367 809.698 15.3793 804.164 15.5724C794.319 15.9263 784.602 15.1863 775.014 12.9662C774.531 12.8697 774.017 12.741 773.534 12.8054C762.144 14.2854 750.787 16.055 739.365 17.2132C733.767 17.7924 728.04 17.2454 722.377 17.3741C720.704 17.4063 719.063 17.9854 717.39 18.3393C715.492 18.7254 713.593 19.3046 711.663 19.4654C709.346 19.6585 707.03 19.5298 704.681 19.4654C696.991 19.3046 689.334 19.015 681.644 18.9828C679.328 18.9828 676.947 20.2054 674.662 19.9802C670.19 19.562 665.718 17.8246 661.31 17.9854C652.43 18.275 643.325 15.2828 634.67 19.4011C627.302 16.1515 623.087 23.455 616.942 24.7742C611.601 25.9325 606.582 25.482 601.852 24.6455C591.588 22.8116 581.775 21.8785 571.512 24.8385C567.586 25.9646 562.857 24.2594 558.481 24.0664C556.486 23.9698 554.138 23.809 552.529 24.6777C547.284 27.509 542.201 27.2838 536.377 26.576C527.98 25.5786 519.293 27.9916 510.863 25.2246C510.252 25.0316 509.222 25.5786 508.579 26.029C505.168 28.4421 501.919 28.9247 499.86 26.222C496.932 26.9942 494.808 27.6055 492.62 28.0881C489.274 28.796 485.896 29.5038 482.518 29.9543C478.496 30.469 474.378 31.3377 470.42 30.9195C457.615 29.5682 445.807 32.5604 433.902 36.7752C428.69 38.6091 422.609 38.223 416.914 38.3839C413.214 38.4804 409.482 37.7726 405.782 37.4509C400.731 37.0004 395.229 39.0596 391.175 33.6865C389.309 31.2412 385.93 30.7908 382.263 30.7908C378.466 30.7586 374.669 28.1847 370.937 26.576C363.119 23.262 355.59 18.6933 347.418 16.8593C340.661 15.315 333.068 17.6315 325.99 16.9558C317.528 16.1193 310.643 19.9481 303.21 22.2968C302.889 22.3933 302.567 22.522 302.245 22.522C289.697 22.7472 279.369 29.3751 268.269 33.8152C260.322 37.0004 252.89 42.47 243.431 40.9257C242.401 40.7648 240.567 41.6335 240.084 42.5344C236.095 49.6771 229.499 47.3284 224.126 46.1057C214.216 43.8214 204.661 40.1213 194.847 37.3865C185.581 34.7804 176.058 32.9786 166.856 30.1795C156.528 27.0264 146.393 23.1655 136.194 19.6585C135.486 19.4333 134.714 19.3367 133.974 19.3046C129.501 19.208 124.933 19.6263 120.557 18.8863C115.988 18.1141 111.323 16.795 107.269 14.7036C101.542 11.7436 97.1341 15.701 92.115 16.3124C89.3158 16.6663 86.4523 16.6341 83.6531 16.8593C76.993 17.3741 70.3008 17.9854 63.6407 18.4037C60.5842 18.5967 57.4954 18.3072 54.4389 18.468C49.9345 18.6933 45.4301 19.1115 40.8935 19.4011C35.0378 19.7228 29.0855 19.5298 23.3585 20.5915C15.4758 22.0716 7.78618 24.4846 0 26.5116C0 17.6637 0 8.84793 0 0Z" fill="#B1CE72"/>
<path d="M1083.47 0.45044C1362.16 0.45044 1640.86 0.45044 1920 0.45044C1920 10.9071 1920 21.2672 1920 33.1073C1915.27 32.2065 1910.8 31.0482 1906.26 30.5656C1901.21 30.0508 1896.03 30.4369 1891.01 29.8577C1884.87 29.1499 1878.78 27.8951 1872.7 26.8012C1865.56 25.5142 1858.74 22.4898 1851.02 25.0316C1846.93 26.3829 1842.11 26.222 1837.7 25.8038C1833.07 25.3855 1828.4 24.1951 1823.96 22.715C1818.3 20.8168 1812.99 17.8889 1807.29 16.1193C1804.43 15.2184 1800.76 15.0576 1797.96 15.9906C1793.65 17.4385 1790.02 17.4385 1785.54 16.2802C1780.97 15.0897 1775.73 16.6341 1771.03 15.7332C1763.57 14.2854 1756.97 17.5672 1749.96 18.1785C1746.93 18.4359 1743.75 17.5028 1740.72 16.795C1735.13 15.4758 1730.01 16.1193 1724.48 18.0819C1717.82 20.4628 1710.55 21.2029 1703.53 22.6185C1701.92 22.9403 1700.02 22.7794 1698.74 23.5837C1692.59 27.3481 1687.03 25.9968 1680.53 23.8411C1675.89 22.3289 1669.52 21.2028 1665.4 27.2838C1664.41 28.7316 1660.77 28.9247 1658.36 28.8925C1654.08 28.8603 1650.12 27.4768 1645.62 29.7934C1642.88 31.1769 1638.19 30.5012 1635.1 29.1499C1628.76 26.4473 1622.87 29.8577 1616.79 29.4073C1616.11 29.3429 1615.31 30.9195 1614.38 30.7586C1610.58 31.2734 1606.75 31.7238 1602.95 32.3351C1597.32 33.236 1591.76 34.2013 1586.13 35.1665C1581.59 35.9387 1576.93 37.6761 1572.55 37.1613C1565.99 36.4213 1559.62 40.1535 1553.02 37.0326C1548 34.6517 1542.18 30.8551 1537.38 31.6273C1529.37 32.9465 1521.52 26.9942 1513.67 32.1743C1510.81 34.0404 1507.4 33.043 1503.89 30.9838C1499.68 28.5064 1494.46 26.9299 1489.54 26.4473C1485.71 26.0933 1482.56 25.9325 1480.15 22.6829C1479.53 21.8463 1478.05 21.4281 1476.9 21.1707C1472.91 20.302 1468.82 19.8194 1464.93 18.7576C1458.78 17.0524 1452.89 14.028 1446.65 13.3202C1438.96 12.4514 1431.05 13.1915 1423.23 13.6419C1417.98 13.9315 1412.74 14.6393 1407.59 15.6045C1401.45 16.7628 1395.37 18.3393 1389.29 19.755C1381.89 21.4602 1374.9 24.0985 1368.47 28.0881C1368.05 28.3455 1367.54 28.5708 1367.05 28.5386C1358.4 28.056 1349.78 27.4447 1341.12 27.0264C1339.74 26.962 1338 27.2516 1336.97 28.056C1333.82 30.5334 1331.05 31.8847 1326.45 32.4317C1320.21 33.2039 1314.19 31.9491 1308.08 32.6569C1302.51 33.3004 1301.22 33.6221 1295.88 35.8743C1291.12 37.9013 1285.62 38.1909 1280.7 39.9605C1272.94 42.7274 1265.64 46.7492 1257.79 49.0014C1246.75 52.1867 1236.01 47.5536 1225.13 46.2344C1217.15 45.2692 1209.17 44.497 1201.23 43.3388C1198.17 42.8883 1195.11 41.7944 1192.28 40.4752C1184.75 37.0004 1176.97 34.4587 1168.57 34.1691C1159.85 33.8795 1154.28 27.9916 1148.01 23.3585C1142.15 19.015 1135.3 17.0524 1128.22 17.2776C1122.21 17.4706 1118.06 14.4784 1113.62 11.6471C1112.81 11.1323 1112.26 9.78098 1111.52 9.71663C1104.29 9.1375 1098.82 4.18266 1092.19 2.2522C1089.45 1.44784 1086.43 1.64089 1083.57 1.38349C1083.47 1.06175 1083.47 0.772183 1083.47 0.45044Z" fill="#B1CE72"/>
</svg>
