<svg width="1920" height="473" viewBox="0 0 1920 473" fill="none" xmlns="http://www.w3.org/2000/svg">
<rect width="1920" height="473" fill="#FBFCF6"/>
<path d="M1937.9 46.9724C1940.06 46.0941 1941.92 45.7692 1943.79 45.7272C1940.24 446.94 1934.26 71.3926 1945 472.5H-18.9588C-18.3696 94.7274 -40.9111 498.183 -31.8492 109.802C-31.7859 106.913 -30.7929 105.001 -27.2796 103.813C-18.5326 100.865 -9.62514 99.992 -0.0641937 101.376C6.5627 102.335 12.9167 100.447 18.9424 98.2935C20.6404 97.6902 22.3193 97.0215 23.9985 96.3523C27.9433 94.7808 31.8895 93.2083 36.0889 92.4858C43.9017 91.1381 51.5365 89.5964 58.4653 86.6688C64.4191 84.1477 66.1599 83.9738 70.4983 87.4768C73.5846 84.3104 76.0136 84.2308 79.1552 87.2731C80.3089 86.6322 81.4521 85.9986 82.9456 85.1716C82.7372 85.9664 82.5769 86.5633 82.4133 87.1725L82.1822 88.0352C83.0744 87.7362 83.9332 87.4744 84.7579 87.2228C86.461 86.703 88.0187 86.2277 89.4244 85.5629C89.9448 85.3196 90.4755 85.0788 91.0091 84.8365C93.7637 83.5865 96.5959 82.3007 98.479 80.5026C100.301 78.7548 101.651 77.9566 104.647 77.533C106.877 77.2228 109.223 77.2927 111.574 77.363C116.574 77.512 121.596 77.662 125.56 74.1571C125.945 73.8185 127.493 74.032 128.391 74.2362C130.498 74.7081 132.621 74.4448 134.778 74.1771C137.811 73.8005 140.913 73.415 144.141 75.052C145.542 75.7671 148.378 74.8698 151.234 73.9661C152.586 73.5381 153.943 73.1087 155.154 72.8484C155.389 72.7986 155.626 72.7463 155.863 72.6935C157.029 72.4361 158.221 72.1723 159.385 72.1831C163.233 72.2153 166.415 71.6804 166.999 67.8584C170.803 69.6258 174.111 70.1167 177.044 67.3763C177.327 67.113 178.134 67.1809 178.969 67.2512C179.423 67.2898 179.885 67.3289 180.275 67.3157C180.507 67.3074 180.76 67.3108 181.018 67.3142C181.791 67.3235 182.603 67.3338 182.983 67.0412C187.155 63.8469 192.556 63.0849 197.949 62.3238C198.701 62.2178 199.453 62.1118 200.201 61.9989C201.125 61.8597 202.119 61.8001 203.109 61.7405C205.09 61.6213 207.054 61.5036 208.408 60.7484C212.446 58.4979 216.389 58.3714 219.61 59.0675C220.683 58.684 221.652 58.3035 222.559 57.9469C224.416 57.2171 226.014 56.5889 227.714 56.2484C229.558 55.8771 231.473 55.7257 233.392 55.5743C234.681 55.4722 235.972 55.3701 237.246 55.201C238.374 55.0555 239.523 54.7888 240.666 54.523C242.765 54.0355 244.845 53.5519 246.745 53.8318C251.896 54.5978 256.978 55.6236 262.062 56.6504C265.685 57.3817 269.31 58.113 272.961 58.7509C273.921 58.9214 275.067 58.5018 276.212 58.0827C276.742 57.8883 277.273 57.6943 277.784 57.559L277.445 56.5063C285.417 57.6762 293.32 58.7612 301.322 56.3764C302.397 56.0564 303.445 55.6231 304.497 55.1884C307.518 53.9393 310.572 52.677 314.409 54.0423C314.637 53.4874 314.864 52.9403 315.135 52.2789C319.807 56.2455 332.307 59.0558 339.496 57.4618C344.653 56.3207 348.686 57.0744 352.402 59.8652C353.489 60.6756 355.532 61.783 356.514 61.507C362.507 59.8075 368.138 60.8642 373.778 61.9217C375.26 62.1997 376.744 62.4781 378.234 62.7068C380.711 63.0878 383.239 63.2334 385.768 63.3789C390.129 63.6305 394.494 63.8821 398.609 65.3397C399.998 65.8341 402.654 66.0021 403.502 65.3798C406.09 63.482 409.066 63.6295 412.035 63.7766C413.875 63.8679 415.711 63.9588 417.45 63.5626C418.354 63.3565 419.389 63.4962 420.428 63.6364C421.421 63.7707 422.417 63.905 423.305 63.7385C432.344 62.0722 441.317 60.2291 450.281 58.3553C451.36 58.1286 452.549 58.0861 453.74 58.0436C456.681 57.9386 459.641 57.8331 461.03 54.9475C461.073 54.8484 461.591 54.8405 461.885 54.8528C467.406 55.0154 472.072 53.2168 476.754 51.4118C477.227 51.2296 477.699 51.0474 478.173 50.8671C479.312 50.4329 480.493 50.0592 481.674 49.685C483.099 49.2341 484.524 48.7832 485.876 48.2258C486.874 47.8165 487.89 47.4198 488.907 47.0227C492.295 45.7003 495.7 44.3716 498.511 42.5364C502.776 39.7461 507.153 38.5322 512.724 38.689C518.406 38.8551 524.139 38.6318 529.824 38.3011C533.317 38.0974 536.79 37.7237 540.69 37.3046C542.535 37.1063 544.476 36.8977 546.559 36.692C546.961 36.3227 547.421 35.887 547.931 35.4044C549.532 33.8895 551.621 31.9136 553.917 30.0856C554.725 29.432 556.948 29.0588 557.995 29.4179C561.88 30.7812 564.626 29.8345 566.041 28.5019C573.915 27.9196 580.711 27.4209 587.578 26.9163C587.673 26.9778 587.839 27.1063 588.038 27.2597C588.593 27.6891 589.4 28.3129 589.597 28.2142C590.497 27.7848 591.232 27.1561 592.052 26.4547C592.366 26.187 592.692 25.9085 593.044 25.6262C593.718 25.4552 594.577 25.3209 595.476 25.1802C597.614 24.846 599.974 24.4767 600.592 23.4949C601.821 21.5184 603.594 21.1071 605.522 20.6601C606.07 20.5331 606.63 20.4032 607.194 20.2337C612.413 18.6578 617.556 16.8895 622.57 14.9736C623.851 14.4807 625.001 13.7939 626.153 13.1061C627.205 12.4774 628.259 11.8477 629.415 11.3646C631.368 10.5473 633.392 9.83023 635.414 9.11312C637.324 8.43607 639.233 7.75951 641.082 6.99892C642.211 6.52997 643.284 5.89981 644.349 5.27454C646.12 4.23454 647.87 3.20723 649.817 2.9581C652.316 2.644 654.804 2.14916 657.297 1.65334C664.163 0.287506 671.061 -1.08467 678.302 1.29673C678.544 1.37831 678.852 1.328 679.168 1.27671C679.377 1.243 679.589 1.20832 679.787 1.21125C688.759 1.37099 697.732 1.53854 706.693 1.72905C708.74 1.77057 710.824 1.92543 712.908 2.07979C717.448 2.41685 721.983 2.75342 726.104 1.91663C732.317 0.649969 737.703 1.84043 743.079 3.02893C745.52 3.56872 747.959 4.10802 750.473 4.41626C752.304 4.64341 754.117 4.97949 755.927 5.31508C758.601 5.81139 761.268 6.30624 763.978 6.44595C766.703 6.58761 769.458 6.49626 772.209 6.4054C775.622 6.29256 779.029 6.18021 782.366 6.51189C787.147 6.98622 792.429 8.14053 796.172 10.2967C806.15 16.0292 817.074 18.9235 829.504 18.881C830.975 18.8747 832.482 18.7687 833.988 18.6627C837.08 18.4458 840.163 18.2294 842.898 18.8752C849.25 20.3656 855.405 22.3332 861.543 24.296C864.028 25.0903 866.51 25.8841 869.001 26.6447L869.94 25.4034C870.282 24.9525 870.63 24.4943 871.061 23.9218C873.94 28.2054 878.781 28.6416 883.494 29.0666C884.786 29.1829 886.069 29.2987 887.299 29.4926C888.02 29.5195 888.746 29.562 889.472 29.6045C890.084 29.6406 890.696 29.6768 891.304 29.7031C891.917 29.6943 892.534 29.6758 893.151 29.6572C893.875 29.6357 894.6 29.6137 895.318 29.6079C896.555 29.4496 897.841 29.371 899.137 29.2918C903.863 29.0031 908.724 28.7061 911.827 24.5095L912.398 25.3384C912.861 26.0087 913.25 26.568 913.746 27.2895C916.274 26.6012 918.794 25.8797 921.317 25.1577C927.551 23.3737 933.802 21.5844 940.225 20.2781C942.991 19.7115 946.061 20.0168 949.138 20.3226C950.638 20.4716 952.14 20.6206 953.609 20.6694C966.028 21.0705 977.091 18.4927 987.354 13.0519C991.204 11.0051 996.54 10.0036 1001.34 9.66805C1004.69 9.4326 1008.09 9.64314 1011.5 9.85417C1014.24 10.0242 1016.99 10.1946 1019.72 10.1316C1022.43 10.0706 1025.12 9.65291 1027.82 9.23427C1029.65 8.95046 1031.48 8.66664 1033.32 8.49274C1035.84 8.25679 1038.31 7.78833 1040.78 7.31938C1046.21 6.2867 1051.65 5.25158 1057.8 6.69703C1061.87 7.65204 1066.42 7.44589 1070.98 7.23975C1073.07 7.14547 1075.16 7.0507 1077.2 7.06829C1086.17 7.13668 1095.14 7.22754 1104.12 7.32621C1104.31 7.32914 1104.52 7.36969 1104.73 7.40975C1105.04 7.47032 1105.35 7.52943 1105.59 7.45469C1112.95 5.28333 1119.77 6.85335 1126.57 8.41653C1129.03 8.98367 1131.49 9.54984 1133.97 9.93575C1135.91 10.2406 1137.6 11.3172 1139.32 12.4085C1140.35 13.0641 1141.39 13.7245 1142.5 14.2252C1144.31 15.0386 1146.18 15.7698 1148.05 16.5016C1150.04 17.2763 1152.02 18.0511 1153.93 18.9235C1155.06 19.4399 1156.09 20.0989 1157.1 20.7574C1158.22 21.4784 1159.33 22.1979 1160.59 22.7274C1165.5 24.786 1170.55 26.7013 1175.69 28.4267C1176.24 28.6123 1176.79 28.7584 1177.34 28.901C1179.24 29.4032 1180.99 29.8648 1182.12 31.8755C1182.69 32.8744 1185.03 33.3107 1187.14 33.7063C1188.04 33.8729 1188.89 34.0322 1189.55 34.2227C1189.89 34.5148 1190.2 34.8025 1190.5 35.079C1191.29 35.8039 1191.99 36.4531 1192.87 36.9084C1193.06 37.0125 1193.9 36.4116 1194.47 35.9988C1194.68 35.8513 1194.85 35.7282 1194.95 35.6691C1201.79 36.3716 1208.55 37.0657 1216.39 37.8742C1217.74 39.2468 1220.43 40.2717 1224.38 39.0216C1225.45 38.6929 1227.65 39.1296 1228.43 39.8062C1230.63 41.6996 1232.61 43.7351 1234.14 45.2949C1234.62 45.7912 1235.06 46.2396 1235.44 46.6197C1237.51 46.8849 1239.44 47.1492 1241.27 47.4003C1245.15 47.9318 1248.6 48.4056 1252.08 48.7099C1257.75 49.2043 1263.46 49.5927 1269.15 49.5902C1274.73 49.5941 1279.04 50.9331 1283.16 53.844C1285.87 55.7589 1289.21 57.1853 1292.53 58.6044C1293.52 59.0304 1294.52 59.4558 1295.49 59.8935C1296.82 60.489 1298.22 60.9809 1299.62 61.4723C1300.78 61.8802 1301.94 62.2881 1303.06 62.7551C1303.52 62.9486 1303.98 63.144 1304.44 63.3394C1309.03 65.2782 1313.6 67.2102 1319.13 67.2068C1319.42 67.2033 1319.94 67.2263 1319.98 67.326C1320.2 67.834 1320.46 68.2658 1320.78 68.6219C1322.86 67.9869 1325.05 67.7353 1327.59 68.6439L1328.32 66.8805C1332.99 70.847 1345.49 73.6568 1352.68 72.0634C1357.84 70.9222 1361.87 71.676 1365.59 74.4668C1366.67 75.2772 1368.72 76.3846 1369.7 76.1086C1375.69 74.4091 1381.32 75.4657 1386.96 76.5233C1388.44 76.8013 1389.93 77.0797 1391.42 77.3083C1393.21 77.5863 1395.03 77.7348 1396.86 77.853C1398.69 77.7875 1400.52 77.6918 1402.32 77.4651C1403.82 77.28 1405.32 77.0445 1406.82 76.8091C1412.51 75.9147 1418.18 75.0212 1424.09 76.8921C1425.05 77.1965 1427.15 76.1486 1428.28 75.37C1432.13 72.6886 1436.2 72.0516 1441.3 73.3403C1448.4 75.1399 1461.03 72.6921 1465.9 68.8633L1466.54 70.6462C1469.13 69.8119 1471.31 70.126 1473.35 70.8206C1473.68 70.4738 1473.97 70.0576 1474.21 69.5486C1474.26 69.4499 1474.78 69.4421 1475.07 69.4538C1480.59 69.617 1485.26 67.8179 1489.94 66.0134C1490.41 65.8312 1490.88 65.649 1491.36 65.4687C1492.5 65.0344 1493.68 64.6607 1494.86 64.2866C1496.28 63.8357 1497.71 63.3848 1499.06 62.8274C1500.06 62.4181 1501.07 62.0219 1502.09 61.6247C1505.48 60.3024 1508.88 58.9732 1511.7 57.1379C1515.96 54.3477 1520.34 53.1337 1525.91 53.2906C1531.59 53.4566 1537.32 53.2334 1543.01 52.9027C1546.5 52.6985 1549.98 52.3253 1553.88 51.9062C1555.72 51.7078 1557.66 51.4992 1559.74 51.2936C1560.15 50.9243 1560.61 50.4881 1561.12 50.0049C1562.72 48.4901 1564.81 46.5147 1567.1 44.6867C1567.91 44.0336 1570.13 43.6604 1571.18 44.0194C1575.06 45.3828 1577.81 44.4361 1579.23 43.103C1585.3 42.6546 1590.73 42.2555 1596.04 41.8647L1600.76 41.5174C1600.86 41.5789 1601.02 41.7069 1601.22 41.8598C1601.78 42.2892 1602.58 42.9145 1602.78 42.8158C1603.68 42.3864 1604.42 41.7577 1605.24 41.0562C1605.55 40.7885 1605.88 40.5101 1606.23 40.2277C1606.9 40.0563 1607.76 39.9219 1608.66 39.7813C1610.8 39.4466 1613.16 39.0778 1613.78 38.0964C1615.01 36.1195 1616.78 35.7087 1618.71 35.2617C1619.26 35.1347 1619.82 35.0048 1620.38 34.8353C1625.6 33.2594 1630.74 31.491 1635.75 29.5752C1637.04 29.0823 1638.19 28.3954 1639.34 27.7076C1640.39 27.079 1641.44 26.4493 1642.6 25.9662C1644.55 25.1484 1646.58 24.4308 1648.6 23.7132C1650.51 23.0367 1652.42 22.3606 1654.27 21.6005C1655.4 21.1315 1656.47 20.5014 1657.53 19.8761C1659.3 18.8356 1661.05 17.8088 1663 17.5597C1665.5 17.2456 1667.99 16.7507 1670.48 16.2549C1677.35 14.8886 1684.25 13.5164 1691.49 15.8983C1691.89 16.0341 1692.47 15.8055 1692.97 15.8128C1701.94 15.9726 1710.92 16.1401 1719.88 16.3301C1721.92 16.3717 1724.01 16.5265 1726.09 16.6814C1730.63 17.0184 1735.17 17.355 1739.29 16.5182C1745.5 15.2511 1750.89 16.442 1756.26 17.6305C1758.71 18.1703 1761.14 18.7096 1763.66 19.0178C1765.49 19.245 1767.3 19.5811 1769.11 19.9167C1771.78 20.413 1774.45 20.9078 1777.16 21.0475C1779.89 21.1892 1782.64 21.0978 1785.39 21.007C1788.81 20.8941 1792.21 20.7818 1795.55 21.1135C1800.33 21.5878 1805.61 22.7416 1809.36 24.8983C1819.33 30.6308 1830.26 33.5251 1842.69 33.4826C1844.16 33.4763 1845.67 33.3703 1847.17 33.2643C1850.26 33.0474 1853.35 32.8305 1856.08 33.4768C1862.44 34.9676 1868.6 36.9368 1874.74 38.9005C1877.22 39.6938 1879.7 40.4861 1882.19 41.2462C1882.54 40.7788 1882.84 40.3811 1883.15 39.9757C1883.48 39.5341 1883.82 39.0832 1884.24 38.5234C1887.13 42.807 1891.97 43.2432 1896.69 43.6682C1897.98 43.7845 1899.26 43.9002 1900.49 44.0942C1902.37 44.3897 1904.35 44.3238 1906.33 44.2573C1908.34 44.1899 1910.36 44.1225 1912.26 44.4395C1914.15 44.7531 1915.95 45.4248 1917.74 46.0941C1919.78 46.8532 1921.8 47.6084 1923.94 47.8341C1928.53 48.3133 1934.11 48.5233 1937.9 46.9724Z" fill="#DC8649"/>
</svg>
