<svg width="20" height="20" viewBox="0 0 20 20" fill="none" xmlns="http://www.w3.org/2000/svg">
<path d="M15.396 12.1653L14.5791 12.9817C14.3478 13.2129 13.9694 13.2129 13.7382 12.9817L7.01046 6.25818C6.77919 6.02704 6.77919 5.64884 7.01046 5.41774L7.82739 4.60132L15.396 12.1653Z" fill="#DC8649"/>
<path d="M19.3802 0.619421C18.5538 -0.206474 17.214 -0.206474 16.3876 0.619421C15.3135 1.69282 14.435 4.33278 12.7772 5.30091L12.3818 7.62004L14.702 7.22448C15.669 5.566 18.3062 4.68356 19.3803 3.61021C20.2066 2.78435 20.2066 1.44532 19.3802 0.619421Z" fill="#AD7D5B"/>
<path d="M11.4625 5.66477L12.3818 7.62012L14.3386 8.53908C14.3386 8.04931 14.474 7.61544 14.7019 7.2246L12.7772 5.30103C12.3865 5.52919 11.9526 5.66477 11.4625 5.66477Z" fill="#C8A78F"/>
<path d="M16.6815 10.8806L9.11288 3.31665C8.65036 2.85441 7.8935 2.85441 7.43098 3.31665C7.1997 3.54778 6.9222 4.20332 7.15348 4.43441L15.5631 12.8388C15.7943 13.07 16.4503 12.7926 16.6815 12.5615C17.144 12.0993 17.144 11.3429 16.6815 10.8806Z" fill="#5F6C75"/>
<path d="M15.8406 12.5615L7.43096 4.15709C7.19968 3.92599 7.19968 3.54775 7.43096 3.31665L7.01046 3.73689C6.77919 3.96802 6.77919 4.34623 7.01046 4.57732L15.4201 12.9818C15.6513 13.2128 16.0298 13.2128 16.261 12.9818L16.6815 12.5615C16.4502 12.7927 16.0718 12.7927 15.8406 12.5615Z" fill="#3F4A4A"/>
<path d="M4.39973 12.7076C4.39973 12.7076 2.01797 12.7837 1.88167 13.2028C1.74542 13.622 3.5116 15.0827 3.5116 15.0827C3.5116 15.0827 2.96397 17.3701 3.32072 17.6291C3.67747 17.8881 5.64917 16.5506 5.64917 16.5506C5.64917 16.5506 7.62086 17.8882 7.97761 17.6291C8.33436 17.37 7.78673 15.0827 7.78673 15.0827C7.78673 15.0827 9.55295 13.622 9.41666 13.2028C9.28041 12.7837 6.8986 12.7076 6.8986 12.7076C6.8986 12.7076 6.09012 10.4673 5.64917 10.4673C5.20817 10.4673 4.39973 12.7076 4.39973 12.7076Z" fill="#F8E837"/>
<path d="M5.64916 19.9876C2.53419 19.9876 0 17.455 0 14.3419C0 12.9566 0.506997 11.6243 1.42755 10.5904C1.53673 10.4677 1.72472 10.4568 1.84729 10.5659C1.96999 10.675 1.98093 10.8628 1.87179 10.9854C1.04821 11.9104 0.594648 13.1024 0.594648 14.3419C0.594648 17.1273 2.86208 19.3933 5.64916 19.3933C7.24523 19.3933 8.71437 18.6633 9.67984 17.3904C9.77903 17.2595 9.96551 17.234 10.0964 17.3331C10.2273 17.4322 10.2529 17.6186 10.1537 17.7494C9.07485 19.1718 7.43298 19.9876 5.64916 19.9876Z" fill="#DC8649"/>
<path d="M7.85232 17.9614C7.60138 17.9614 7.21276 17.8274 6.53387 17.446C6.17597 17.2449 5.84122 17.0323 5.64915 16.907C5.45704 17.0323 5.12233 17.2448 4.76443 17.446C3.73426 18.0248 3.3724 18.0339 3.14596 17.8694C2.91817 17.704 2.80669 17.3436 3.00285 16.1221C3.02889 15.96 3.18152 15.85 3.34354 15.8758C3.50568 15.9017 3.61601 16.0542 3.59 16.2162C3.47385 16.9398 3.4922 17.2448 3.5127 17.361C3.81779 17.3094 4.67036 16.8553 5.48221 16.3047C5.58302 16.2364 5.71535 16.2364 5.81613 16.3047C6.63024 16.8568 7.48534 17.3119 7.78822 17.3615C7.84677 17.061 7.72162 16.0877 7.49755 15.1518C7.47115 15.0417 7.5098 14.9261 7.59714 14.8538C8.31401 14.2607 8.97526 13.579 9.1054 13.3082C8.82945 13.172 7.85438 13.0354 6.88911 13.0046C6.76737 13.0007 6.66029 12.9229 6.61894 12.8084C6.28717 11.8895 5.86631 11.0242 5.64919 10.7993C5.43206 11.0242 5.01121 11.8895 4.67944 12.8084C4.63809 12.923 4.53101 13.0007 4.40927 13.0046C3.42647 13.0362 2.46754 13.1701 2.19278 13.3079C2.32265 13.5785 2.98413 14.2605 3.7012 14.8538C3.82766 14.9585 3.84534 15.1457 3.74065 15.2722C3.63595 15.3986 3.44855 15.4163 3.32205 15.3117C3.30362 15.2964 2.86572 14.9335 2.43698 14.5118C1.57565 13.6646 1.52518 13.3379 1.59892 13.1111C1.68542 12.845 1.98354 12.6398 3.15737 12.5029C3.56518 12.4554 3.96098 12.4307 4.19008 12.4192C4.27182 12.205 4.41759 11.8364 4.58889 11.4635C5.08189 10.3901 5.36935 10.1702 5.64923 10.1702C5.92911 10.1702 6.21656 10.3901 6.70957 11.4635C6.88086 11.8364 7.02663 12.205 7.10838 12.4192C7.33747 12.4307 7.73327 12.4554 8.14108 12.5029C9.31492 12.6398 9.61304 12.845 9.69954 13.1111C9.77327 13.3379 9.72277 13.6646 8.86148 14.5118C8.57462 14.794 8.2836 15.0498 8.11694 15.1928C8.16538 15.4117 8.24725 15.8032 8.31 16.2139C8.48594 17.3653 8.37426 17.7085 8.1525 17.8695C8.07512 17.9255 7.98219 17.9614 7.85232 17.9614Z" fill="#DC8649"/>
<path d="M10.5082 16.8837C10.4663 16.8837 10.4239 16.8749 10.3834 16.8562C10.2344 16.7872 10.1695 16.6106 10.2385 16.4617C10.5472 15.7955 10.7037 15.0823 10.7037 14.342C10.7037 11.5566 8.43624 9.29057 5.64916 9.29057C5.48496 9.29057 5.35184 9.15757 5.35184 8.99343C5.35184 8.82929 5.48496 8.69629 5.64916 8.69629C8.76413 8.69629 11.2983 11.2289 11.2983 14.342C11.2983 15.1692 11.1233 15.9664 10.7782 16.7114C10.7279 16.8199 10.6204 16.8837 10.5082 16.8837Z" fill="#DC8649"/>
<path d="M2.52738 10.2946C2.43493 10.2946 2.34387 10.2516 2.28575 10.1709C2.18986 10.0377 2.22018 9.85198 2.3535 9.75614C2.54419 9.61906 2.74526 9.4928 2.95113 9.38072C3.09531 9.30223 3.27588 9.35548 3.35442 9.49957C3.43295 9.64371 3.37971 9.82413 3.23549 9.90266C3.0513 10.0029 2.87136 10.1159 2.7007 10.2386C2.64821 10.2764 2.58752 10.2946 2.52738 10.2946Z" fill="#DC8649"/>
</svg>
